PathFileType	4	(X/Y/Z)	c:/Users/goper/Files/vsCode/490R/osim_files/A04/A04_SSWS_04.trc
DataRate	CameraRate	NumFrames	NumMarkers	Units                	OrigDataRate	OrigDataStartFrame	OrigNumFrames
120.00	120.00	7	36	mm	120.0	635	1692
                Frame#	Time	LPSIS			LASIS			LTH1			LTH2			LTH3			LTH4			LLFE			LMFE			LSH1			LSH2			LSH3			LSH4			LLMAL			LMMAL			LCAL			LMTP5			LTOE			LMTP1			RPSIS			RASIS			RTH1			RTH2			RTH3			RTH4			RLFE			RMFE			RSH1			RSH2			RSH3			RSH4			RLMAL			RMMAL			RCAL			RMTP1			RTOE			RMTP5		
		X1	Y1	Z1	X2	Y2	Z2	X3	Y3	Z3	X4	Y4	Z4	X5	Y5	Z5	X6	Y6	Z6	X7	Y7	Z7	X8	Y8	Z8	X9	Y9	Z9	X10	Y10	Z10	X11	Y11	Z11	X12	Y12	Z12	X13	Y13	Z13	X14	Y14	Z14	X15	Y15	Z15	X16	Y16	Z16	X17	Y17	Z17	X18	Y18	Z18	X19	Y19	Z19	X20	Y20	Z20	X21	Y21	Z21	X22	Y22	Z22	X23	Y23	Z23	X24	Y24	Z24	X25	Y25	Z25	X26	Y26	Z26	X27	Y27	Z27	X28	Y28	Z28	X29	Y29	Z29	X30	Y30	Z30	X31	Y31	Z31	X32	Y32	Z32	X33	Y33	Z33	X34	Y34	Z34	X35	Y35	Z35	X36	Y36	Z36

635	5.28333	-1044.33069	1032.28955	367.10239	-1267.10718	984.05975	450.46216	-1079.58069	658.78442	475.05002	-1073.66479	615.05359	474.51346	-1139.50293	646.84467	473.55017	-1126.47351	604.11426	472.82574	-1072.30994	519.33722	459.91379	-1093.00793	518.26477	320.93509	-1010.77563	432.08438	457.40598	-1006.26129	390.19794	454.85349	-1069.77539	416.24585	448.07056	-1054.49121	375.71228	444.55038	-892.20703	123.87820	402.70157	-917.21094	123.90176	317.41800	-826.87042	88.99918	345.49063	-1025.33667	59.65150	440.03445	-1076.72681	70.36964	380.20328	-1058.37280	56.39363	335.82242	-1042.55432	1017.29456	261.02396	-1267.00146	992.90491	164.50153	-1275.03833	699.16644	127.97647	-1297.30579	663.19672	128.22513	-1330.54651	727.50104	123.29031	-1347.12915	682.75299	126.88175	-1398.96680	560.09448	152.42091	-1395.67102	548.92084	273.32483	-1416.93054	331.35135	149.78070	-1438.84204	288.83450	155.64902	-1473.90393	352.37305	142.87544	-1486.06506	306.17081	145.67122	-1528.15356	116.87114	139.69206	-1556.48853	132.00864	273.15762	-1490.30920	45.31429	217.93167	-1696.51440	133.70830	245.05611	-1706.41003	165.42017	199.92993	-1684.61353	127.19268	128.02505
636	5.29167	-1055.45862	1030.39905	365.06638	-1278.07068	982.67883	449.76218	-1089.24792	658.18933	474.48770	-1082.94946	614.56024	474.14136	-1149.35059	645.77222	472.72208	-1135.67114	603.23706	472.42892	-1081.11987	518.38654	459.70563	-1102.01343	516.89832	320.72046	-1017.98859	432.34622	457.13275	-1012.76044	390.22833	454.57721	-1076.76611	415.38513	447.92899	-1060.85669	375.14166	444.25851	-893.86450	125.97161	402.80194	-919.02136	125.73936	317.28760	-828.05212	91.99352	345.31509	-1025.89795	59.61146	440.30151	-1077.30115	70.08949	380.20145	-1058.90356	56.19049	335.99652	-1054.06543	1015.32489	258.98660	-1279.11633	991.05920	163.70935	-1285.58118	697.16864	127.54211	-1307.77490	661.10156	127.80073	-1341.21191	725.36603	122.52002	-1357.58972	680.61072	126.08329	-1407.74402	557.57526	151.45110	-1406.72266	547.70142	271.56439	-1420.94312	333.08810	148.80760	-1442.74146	289.83356	155.22656	-1478.71326	352.80096	142.28264	-1490.08203	306.49777	145.16113	-1529.28027	116.37827	139.66022	-1558.48560	131.48897	272.88007	-1490.69971	45.62361	218.25356	-1697.75745	132.28702	244.41324	-1706.93140	163.87379	198.98904	-1684.94824	125.91217	126.97856
637	5.30000	-1066.62256	1028.44775	363.04401	-1289.11658	981.33905	448.98209	-1099.19519	657.60919	473.93240	-1092.71289	613.94562	473.74948	-1159.00037	644.87915	472.36343	-1145.38513	602.29742	472.14706	-1090.59265	517.36499	459.47363	-1111.22424	515.44977	320.49619	-1025.78210	432.55386	456.94733	-1019.75470	390.25162	454.38440	-1084.27551	414.49503	447.67551	-1067.40967	374.45859	444.04126	-895.85480	128.27602	402.90778	-921.08160	127.71824	317.17026	-829.43695	95.35892	345.20963	-1026.59583	59.58702	440.61423	-1078.00781	69.70095	380.25061	-1059.40808	56.05297	336.10712	-1065.55603	1013.46637	256.86267	-1291.20203	989.44513	162.88698	-1295.40198	695.22833	127.24570	-1317.62427	659.06085	127.45462	-1351.11060	723.14380	121.73331	-1367.53259	678.36084	125.30859	-1415.91504	555.25854	150.19868	-1418.10608	546.72253	269.67303	-1426.71973	332.60947	148.31364	-1447.75903	288.80151	154.60492	-1485.00085	351.33783	141.98738	-1495.03162	304.47247	144.64119	-1531.28564	114.39388	139.10164	-1561.75879	129.15741	272.55408	-1492.10681	44.81503	218.33832	-1700.04626	129.14362	243.19864	-1709.73486	161.30078	197.80836	-1686.74841	122.82897	126.41080
638	5.30833	-1077.73193	1026.53552	361.09979	-1300.21143	980.04443	448.29956	-1109.44104	657.00482	473.55322	-1103.43872	613.03436	472.86594	-1169.51819	643.75317	471.82935	-1155.51941	601.37457	471.70728	-1100.52039	516.25793	459.29605	-1121.12769	513.91431	320.31906	-1033.06226	432.40076	456.61960	-1027.31519	390.25714	454.14743	-1092.31750	413.45700	447.53961	-1074.75623	373.85141	443.93375	-898.04370	130.90598	403.04764	-923.51709	129.94519	317.12146	-831.10083	99.28690	345.19431	-1027.30566	59.59802	440.97598	-1077.94739	68.56712	380.89713	-1059.86194	55.92098	336.27487	-1077.09082	1011.76233	254.74583	-1303.13098	988.14996	162.16910	-1304.16528	693.71179	126.78415	-1326.43250	657.31610	126.99883	-1360.35645	721.10919	120.98835	-1376.44348	676.16882	124.59978	-1423.83252	553.21094	148.49657	-1428.99719	545.62054	267.26071	-1433.15210	330.01138	147.51225	-1453.33728	286.11166	153.74098	-1491.01489	347.95236	140.43225	-1501.32422	301.25873	143.74480	-1535.52698	110.25419	138.69124	-1566.03052	125.43956	272.13989	-1494.40088	43.31000	218.23114	-1704.28601	122.05061	242.24501	-1714.94312	153.95203	196.79298	-1690.95959	115.41286	125.57195
639	5.31667	-1088.81580	1024.82898	359.28281	-1311.18469	978.73615	447.52924	-1120.49219	656.34631	472.87354	-1113.70178	612.51074	472.71857	-1180.66882	642.48639	471.06799	-1166.14441	600.36096	471.46109	-1111.09753	515.02631	459.25134	-1131.78174	512.24939	320.20602	-1042.90002	432.94128	456.68329	-1035.39551	390.26108	453.95129	-1100.54578	412.50586	447.48892	-1082.30164	373.13742	443.85309	-900.51428	133.91600	403.02158	-926.13263	132.49716	316.96591	-833.10522	103.62965	344.90762	-1028.03503	59.61731	441.40591	-1078.47839	68.02126	381.08478	-1060.61755	55.91518	336.40213	-1088.68213	1010.43719	252.84033	-1314.97180	987.17078	161.63522	-1313.16125	691.99524	126.22943	-1334.65710	655.60889	126.11659	-1369.12048	719.15082	120.10318	-1384.90344	674.11487	123.55838	-1431.61292	550.94757	146.55530	-1439.33215	544.57361	264.54529	-1439.71790	328.56253	146.10460	-1459.43359	284.29337	152.58723	-1497.92542	345.63632	139.08118	-1507.71155	299.04663	142.53654	-1538.69995	107.43069	137.91463	-1569.92419	122.51098	271.66714	-1496.23669	42.57763	218.15402	-1708.83740	114.61850	240.79594	-1720.90796	144.31998	195.95265	-1695.32239	107.63100	124.87694
640	5.32500	-1100.06799	1023.35443	357.71063	-1322.53784	977.76593	446.77588	-1131.96021	655.75146	472.22507	-1125.10193	611.90546	472.33594	-1192.10559	641.35791	471.11136	-1177.38452	599.51660	471.23480	-1122.30249	513.70978	459.42679	-1143.33044	510.52585	320.55469	-1052.06445	433.37027	456.52097	-1043.98157	390.33401	453.84592	-1109.53662	411.45102	447.43689	-1090.38110	372.47122	443.92740	-903.36688	137.29602	402.66425	-929.29596	135.37277	316.65500	-835.52814	108.63727	344.34189	-1028.93665	59.77266	441.74194	-1079.32324	67.49536	381.38907	-1061.67505	56.01459	336.68802	-1100.11011	1009.38031	251.13112	-1326.91711	986.59552	161.08350	-1321.78918	690.35394	125.38627	-1343.24438	653.77319	125.23232	-1377.65649	717.25616	118.43943	-1393.02588	672.13074	121.72884	-1439.81787	548.59894	144.15952	-1449.37354	543.39783	261.77173	-1446.28894	328.10336	144.20506	-1465.17920	283.55826	150.88593	-1504.07568	344.42191	136.40327	-1514.17114	297.75949	140.87282	-1541.53015	105.17585	137.24466	-1573.28809	120.44298	270.91592	-1497.53406	42.43642	217.99277	-1711.70764	110.11459	239.72867	-1724.24475	140.29668	194.50960	-1697.54736	102.90401	123.78781
641	5.33333	-1111.23145	1022.11127	356.40390	-1333.74585	977.04828	446.09216	-1143.77759	655.26447	471.49213	-1136.77612	611.56305	472.11111	-1203.63525	641.05505	470.66751	-1189.11243	598.90790	471.37402	-1134.19946	512.27942	459.75525	-1155.59424	508.69165	321.01718	-1062.25488	432.99548	456.82654	-1053.34851	390.39960	453.86865	-1119.33179	410.48373	448.24347	-1098.91492	371.88257	444.14807	-906.52008	141.14575	402.18921	-932.80072	138.65698	316.18423	-838.43884	114.20944	343.44748	-1029.81091	60.11730	442.06171	-1080.37927	67.11138	381.74826	-1062.71033	56.12815	336.86981	-1111.17810	1008.61414	249.72821	-1338.22412	986.39081	160.49902	-1330.14905	689.42334	123.98897	-1351.31531	652.73132	123.57795	-1386.20471	715.91095	115.83184	-1401.59595	670.64435	119.10686	-1448.69495	547.02423	141.41867	-1459.19849	542.16504	258.94141	-1452.79565	327.42468	142.48473	-1470.30347	283.33746	149.10597	-1511.05273	342.90533	134.26302	-1519.45337	295.66754	138.73576	-1544.11560	103.01530	136.29388	-1576.56030	118.60603	270.02338	-1498.81970	42.53204	217.74649	-1713.75305	106.25516	239.02148	-1725.26636	134.89708	192.44356	-1699.61646	97.91606	122.41463
